<svg width="85" height="85" viewBox="0 0 85 85" fill="none" xmlns="http://www.w3.org/2000/svg">
<path d="M45.2033 9.33399C43.8835 6.85237 40.3273 6.85238 39.0075 9.334L29.9942 26.2822C29.4606 27.2855 28.4741 27.9683 27.3471 28.1143L10.1734 30.3393C7.1152 30.7355 6.01886 34.6009 8.41363 36.5437L21.632 47.2677C22.6564 48.0987 23.1281 49.4341 22.8531 50.7241L18.9639 68.9657C18.3362 71.91 21.4642 74.2258 24.097 72.7659L40.4039 63.7238C41.4623 63.137 42.7485 63.137 43.8069 63.7238L60.1138 72.7659C62.7465 74.2258 65.8746 71.91 65.2469 68.9657L61.3577 50.7241C61.0827 49.4341 61.5544 48.0987 62.5787 47.2677L75.7971 36.5437C78.1919 34.6009 77.0956 30.7355 74.0374 30.3393L56.8637 28.1143C55.7367 27.9683 54.7502 27.2855 54.2166 26.2822L45.2033 9.33399ZM50.0006 34.2425L42.1053 17.5438L34.2101 34.2425L17.5441 35.7892L31.2281 45.7244L26.754 63.1572L42.1054 53.9821L57.4557 63.1572L52.9827 45.7244L66.6661 35.7891L50.0006 34.2425Z" fill="#17A2B8"/>
</svg>
